<svg width="202" height="61" viewBox="0 0 202 61" fill="none" xmlns="http://www.w3.org/2000/svg">
<path d="M0 19.068C0 17.7111 1.00121 16.9059 2.40181 16.9059C3.80241 16.9059 4.79085 17.6695 4.79085 18.9957V19.4968C4.79085 19.5909 4.72702 19.6542 4.63219 19.6542H3.51609C3.42308 19.6542 3.35743 19.5927 3.35743 19.4968V19.2146C3.35743 18.556 2.9781 18.2213 2.39999 18.2213C1.82005 18.2213 1.45166 18.5976 1.45166 19.2978V22.4948C1.45166 23.195 1.82005 23.5695 2.39999 23.5695C2.9781 23.5695 3.35743 23.2782 3.35743 22.5781V22.0769C3.35743 21.9828 3.29542 21.9195 3.20059 21.9195H2.55865C2.46381 21.9195 2.39999 21.867 2.39999 21.7621V20.7597C2.39999 20.6656 2.46199 20.6023 2.55865 20.6023H4.63219C4.7252 20.6023 4.79085 20.6638 4.79085 20.7597V22.797C4.79085 24.1539 3.80059 24.8849 2.40181 24.8849C1.00121 24.8849 0 24.0798 0 22.7228V19.068Z" fill="white"/>
<path d="M8.39638 20.5191C8.97632 20.5191 9.34471 20.0794 9.34471 19.5674V19.2436C9.34471 18.7315 8.97632 18.2828 8.39638 18.2828H7.59578C7.50095 18.2828 7.43712 18.3443 7.43712 18.4402V20.3617C7.43712 20.4558 7.50095 20.5191 7.59578 20.5191H8.39638ZM5.9964 24.6551V17.1357C5.9964 17.0417 6.04929 16.9783 6.15506 16.9783H8.39638C9.79698 16.9783 10.7964 17.845 10.7964 19.0156V19.799C10.7964 20.3635 10.5429 20.9479 9.97571 21.3658C9.90276 21.4183 9.84987 21.4798 9.87176 21.5739L10.6705 24.5936C10.7125 24.7601 10.6176 24.8125 10.5028 24.8125H9.54531C9.38665 24.8125 9.3137 24.8125 9.26994 24.6551L8.56416 21.9919C8.5441 21.8978 8.48027 21.8363 8.35444 21.8363H7.59578C7.50095 21.8363 7.43712 21.8978 7.43712 21.9919V24.6551C7.43712 24.7492 7.38423 24.8125 7.27846 24.8125H6.15141C6.06023 24.8125 5.9964 24.7492 5.9964 24.6551Z" fill="white"/>
<path d="M11.9944 17.1357C11.9944 17.0417 12.0473 16.9783 12.1531 16.9783H13.2893C13.3841 16.9783 13.4479 17.0417 13.4479 17.1357V22.4731C13.4479 23.195 13.8163 23.5695 14.3963 23.5695C14.9853 23.5695 15.3555 23.1932 15.3555 22.4731V17.1357C15.3555 17.0417 15.4084 16.9783 15.5124 16.9783H16.6485C16.7434 16.9783 16.8072 17.0417 16.8072 17.1357V22.7029C16.8072 24.0816 15.7969 24.8849 14.3963 24.8849C12.9957 24.8849 11.9963 24.0816 11.9963 22.7029V17.1357H11.9944Z" fill="white"/>
<path d="M20.5603 20.937C21.1494 20.937 21.5178 20.4775 21.5178 19.8605V19.3702C21.5178 18.755 21.1494 18.2846 20.5603 18.2846H19.7597C19.6667 18.2846 19.6029 18.3462 19.6029 18.442V20.7814C19.6029 20.8755 19.6667 20.9389 19.7597 20.9389H20.5603V20.937ZM18.1603 24.6551V17.1357C18.1603 17.0417 18.2132 16.9783 18.319 16.9783H20.5603C21.9609 16.9783 22.9603 17.8649 22.9603 19.1404V20.0903C22.9603 21.364 21.9591 22.2524 20.5603 22.2524H19.7597C19.6667 22.2524 19.6029 22.3157 19.6029 22.4098V24.6551C19.6029 24.7492 19.55 24.8125 19.4442 24.8125H18.3172C18.2223 24.8125 18.1603 24.7492 18.1603 24.6551Z" fill="white"/>
<path d="M26.4801 23.5695C27.0691 23.5695 27.4375 23.1932 27.4375 22.4731V19.3195C27.4375 18.5976 27.0691 18.2213 26.4801 18.2213C25.9001 18.2213 25.5317 18.5976 25.5317 19.3195V22.4731C25.5317 23.1932 25.9001 23.5695 26.4801 23.5695ZM24.0801 19.088C24.0801 17.7093 25.0813 16.9041 26.4801 16.9041C27.8807 16.9041 28.891 17.7075 28.891 19.088V22.7011C28.891 24.0798 27.8807 24.8849 26.4801 24.8849C25.0795 24.8849 24.0801 24.0816 24.0801 22.7011V19.088Z" fill="white"/>
<path d="M114.679 32.2758C114.679 36.3612 110.405 39.4768 106.061 37.4504C104.131 36.5512 102.966 34.5519 102.966 32.4368V10.2912C102.966 8.17615 104.129 6.1769 106.061 5.27768C110.407 3.25309 114.679 6.36687 114.679 10.454V32.2758ZM104.842 0.729142C101.206 2.07163 98.2881 6.47181 98.2881 10.3202V32.4043C98.2881 36.2544 101.206 40.6546 104.844 41.9971C112.309 44.7508 119.361 39.3139 119.361 32.274V10.4522C119.359 3.41231 112.307 -2.02459 104.842 0.729142ZM118.558 42.7733L103.495 51.7509C98.4394 54.7652 92.6474 56.3592 86.7495 56.3592C81.4006 56.3592 76.0809 55.0312 71.3685 52.5199L56.4707 44.5862C51.0798 41.713 44.996 40.1969 38.8775 40.1969H38.8191L52.1649 4.67519H52.1832V0.55726C52.1832 0.267775 51.9461 0.0325682 51.6543 0.0325682H34.7195C34.4277 0.0325682 34.1906 0.267775 34.1906 0.55726V4.1505C34.1906 4.43998 34.4277 4.67519 34.7195 4.67519H46.4075C46.7759 4.67519 47.0312 5.03886 46.9017 5.38262L33.6088 40.7686C33.5687 40.8735 33.5523 40.9803 33.5523 41.087C33.5505 41.0997 33.5468 41.1124 33.5468 41.125V44.313C33.5468 44.6025 33.7839 44.8377 34.0757 44.8377H38.8738C44.2246 44.8377 49.5425 46.1639 54.2531 48.6752L69.1509 56.6089C74.5435 59.482 80.6274 61 86.7459 61C93.4936 61 100.117 59.178 105.9 55.7296L119.098 47.8628C119.257 47.7687 119.355 47.5968 119.355 47.4123V43.222C119.359 42.8149 118.91 42.5634 118.558 42.7733ZM80.3848 42.1165H97.3197C97.6115 42.1165 97.8485 41.8813 97.8485 41.5918V37.9986C97.8485 37.7091 97.6115 37.4739 97.3197 37.4739H85.0644C84.7726 37.4739 84.5356 37.2387 84.5356 36.9492V0.55726C84.5356 0.267775 84.2985 0.0325682 84.0067 0.0325682H80.3848C80.093 0.0325682 79.856 0.267775 79.856 0.55726V41.5918C79.856 41.8813 80.093 42.1165 80.3848 42.1165ZM57.264 42.1165H74.1988C74.4906 42.1165 74.7277 41.8813 74.7277 41.5918V37.9986C74.7277 37.7091 74.4906 37.4739 74.1988 37.4739H61.9436C61.6518 37.4739 61.4147 37.2387 61.4147 36.9492V23.7251C61.4147 23.4357 61.6518 23.2004 61.9436 23.2004H69.1746C69.4664 23.2004 69.7034 22.9652 69.7034 22.6758V19.0825C69.7034 18.793 69.4664 18.5578 69.1746 18.5578H61.9436C61.6518 18.5578 61.4147 18.3226 61.4147 18.0331V5.19988C61.4147 4.9104 61.6518 4.67519 61.9436 4.67519H74.1988C74.4906 4.67519 74.7277 4.43998 74.7277 4.1505V0.55726C74.7277 0.267775 74.4906 0.0325682 74.1988 0.0325682H57.264C56.9722 0.0325682 56.7351 0.267775 56.7351 0.55726V41.5918C56.7351 41.8813 56.9722 42.1165 57.264 42.1165Z" fill="white"/>
<path d="M201.442 33.5495C201.754 33.5495 201.998 33.318 201.998 32.9959C201.998 32.701 201.754 32.4567 201.442 32.4567C201.132 32.4567 200.898 32.701 200.898 32.9959C200.9 33.3161 201.132 33.5495 201.442 33.5495ZM196.186 29.1295C196.16 29.2073 196.069 29.2073 196.044 29.1295L194.375 24.1069C194.337 23.9911 194.258 23.9151 194.142 23.9151H193.702C193.573 23.9151 193.509 23.9929 193.509 24.1069V33.3559C193.509 33.4717 193.587 33.5495 193.702 33.5495H194.142C194.271 33.5495 194.337 33.4717 194.337 33.3559V26.8425C194.337 26.7647 194.441 26.7521 194.466 26.8299L195.697 30.5678C195.735 30.6836 195.814 30.7596 195.931 30.7596H196.294C196.41 30.7596 196.489 30.6818 196.527 30.5678L197.769 26.8299C197.794 26.7521 197.898 26.7647 197.898 26.8425V33.3559C197.898 33.4717 197.962 33.5495 198.092 33.5495H198.518C198.635 33.5495 198.714 33.4717 198.714 33.3559V24.1069C198.714 23.9911 198.648 23.9151 198.518 23.9151H198.092C197.975 23.9151 197.898 23.9929 197.858 24.1069L196.186 29.1295ZM188.171 33.5495H190.735C190.852 33.5495 190.928 33.4717 190.928 33.3559V32.9959C190.928 32.8801 190.85 32.8041 190.735 32.8041H188.999C188.882 32.8041 188.805 32.7263 188.805 32.6123V29.2471C188.805 29.1313 188.884 29.0535 188.999 29.0535H190.735C190.852 29.0535 190.928 28.9757 190.928 28.8617V28.5016C190.928 28.3858 190.85 28.3099 190.735 28.3099H188.999C188.882 28.3099 188.805 28.2321 188.805 28.1181V24.8559C188.805 24.7401 188.884 24.6642 188.999 24.6642H190.735C190.852 24.6642 190.928 24.5864 190.928 24.4706V24.1105C190.928 23.9947 190.85 23.9187 190.735 23.9187H188.171C188.041 23.9187 187.977 23.9965 187.977 24.1105V33.3596C187.977 33.4717 188.054 33.5495 188.171 33.5495ZM182.474 32.7516C182.357 32.7516 182.28 32.6738 182.28 32.5599V29.2579C182.28 29.1421 182.359 29.0661 182.474 29.0661H183.418C184.104 29.0661 184.558 29.5275 184.558 30.4792V31.3531C184.558 32.3029 184.104 32.7535 183.418 32.7535H182.474V32.7516ZM182.474 28.2936C182.357 28.2936 182.28 28.2158 182.28 28.1018V24.8903C182.28 24.7745 182.359 24.6985 182.474 24.6985H183.159C183.847 24.6985 184.299 25.1472 184.299 26.0989V26.895C184.299 27.8069 183.872 28.2954 183.159 28.2954H182.474V28.2936ZM181.646 33.5495H183.42C184.585 33.5495 185.388 32.7915 185.388 31.61V30.2223C185.388 29.5166 185.103 28.9377 184.584 28.6301C184.533 28.603 184.533 28.5523 184.584 28.5143C184.947 28.2194 185.127 27.7309 185.127 27.1519V25.8547C185.127 24.6732 184.325 23.9151 183.159 23.9151H181.646C181.516 23.9151 181.452 23.9929 181.452 24.1069V33.3559C181.45 33.4717 181.529 33.5495 181.646 33.5495ZM172.731 28.5903C172.615 28.5903 172.538 28.5125 172.538 28.3985V24.8921C172.538 24.7763 172.616 24.7003 172.731 24.7003H173.676C174.362 24.7003 174.816 25.149 174.816 26.1007V27.1935C174.816 28.1434 174.362 28.5939 173.676 28.5939H172.731V28.5903ZM171.903 33.5495H172.343C172.472 33.5495 172.536 33.4717 172.536 33.3559V29.5673C172.536 29.4515 172.615 29.3737 172.73 29.3737H173.689C173.806 29.3737 173.857 29.4515 173.882 29.5673L174.633 33.3559C174.672 33.5495 174.75 33.5495 174.867 33.5495H175.281C175.385 33.5495 175.476 33.4844 175.436 33.28L174.646 29.3357C174.621 29.2326 174.659 29.1566 174.737 29.1186C175.281 28.7984 175.644 28.2194 175.644 27.436V25.8565C175.644 24.675 174.841 23.9169 173.676 23.9169H171.902C171.772 23.9169 171.706 23.9947 171.706 24.1087V33.3578C171.708 33.4717 171.787 33.5495 171.903 33.5495ZM166.374 33.5495H168.938C169.055 33.5495 169.131 33.4717 169.131 33.3559V32.9959C169.131 32.8801 169.053 32.8041 168.938 32.8041H167.204C167.087 32.8041 167.01 32.7263 167.01 32.6123V29.2471C167.01 29.1313 167.089 29.0535 167.204 29.0535H168.938C169.055 29.0535 169.131 28.9757 169.131 28.8617V28.5016C169.131 28.3858 169.053 28.3099 168.938 28.3099H167.204C167.087 28.3099 167.01 28.2321 167.01 28.1181V24.8559C167.01 24.7401 167.089 24.6642 167.204 24.6642H168.938C169.055 24.6642 169.131 24.5864 169.131 24.4706V24.1105C169.131 23.9947 169.053 23.9187 168.938 23.9187H166.374C166.244 23.9187 166.181 23.9965 166.181 24.1105V33.3596C166.181 33.4717 166.257 33.5495 166.374 33.5495ZM161.583 33.5495H161.895C162.114 33.5495 162.154 33.5097 162.192 33.3053L163.967 24.1449C164.005 23.9658 163.888 23.9133 163.759 23.9133H163.436C163.254 23.9133 163.203 23.9658 163.164 24.1196L161.806 31.3259C161.793 31.4037 161.689 31.4037 161.676 31.3259L160.317 24.1196C160.279 23.9658 160.226 23.9133 160.046 23.9133H159.723C159.593 23.9133 159.479 23.9658 159.517 24.1449L161.291 33.3053C161.324 33.5097 161.364 33.5495 161.583 33.5495ZM156.663 33.5495H157.102C157.232 33.5495 157.296 33.4717 157.296 33.3559V24.1069C157.296 23.9911 157.217 23.9151 157.102 23.9151H156.663C156.533 23.9151 156.469 23.9929 156.469 24.1069V33.3559C156.469 33.4717 156.546 33.5495 156.663 33.5495ZM151.872 33.5495H152.184C152.403 33.5495 152.443 33.5097 152.481 33.3053L154.255 24.1449C154.296 23.9658 154.177 23.9133 154.049 23.9133H153.727C153.544 23.9133 153.493 23.9658 153.455 24.1196L152.096 31.3259C152.083 31.4037 151.98 31.4037 151.967 31.3259L150.608 24.1196C150.568 23.9658 150.517 23.9133 150.336 23.9133H150.014C149.884 23.9133 149.767 23.9658 149.806 24.1449L151.58 33.3053C151.615 33.5097 151.653 33.5495 151.872 33.5495ZM141.612 33.5495H144.176C144.293 33.5495 144.369 33.4717 144.369 33.3559V32.9959C144.369 32.8801 144.291 32.8041 144.176 32.8041H142.442C142.325 32.8041 142.246 32.7263 142.246 32.6123V29.2471C142.246 29.1313 142.325 29.0535 142.442 29.0535H144.176C144.293 29.0535 144.369 28.9757 144.369 28.8617V28.5016C144.369 28.3858 144.291 28.3099 144.176 28.3099H142.442C142.325 28.3099 142.246 28.2321 142.246 28.1181V24.8559C142.246 24.7401 142.325 24.6642 142.442 24.6642H144.176C144.293 24.6642 144.369 24.5864 144.369 24.4706V24.1105C144.369 23.9947 144.291 23.9187 144.176 23.9187H141.612C141.482 23.9187 141.418 23.9965 141.418 24.1105V33.3596C141.418 33.4717 141.497 33.5495 141.612 33.5495ZM142.868 23.271H143.115C143.206 23.271 143.282 23.233 143.386 23.0268L143.749 22.294C143.828 22.1275 143.777 22.0497 143.671 22.0497H143.102C142.998 22.0497 142.934 22.1149 142.894 22.2687L142.726 23.0521C142.688 23.2077 142.766 23.271 142.868 23.271Z" fill="white"/>
<path d="M187.408 17.9409C187.408 18.0566 187.487 18.1326 187.604 18.1326H190.166C190.283 18.1326 190.361 18.0548 190.361 17.9409V17.5808C190.361 17.465 190.283 17.389 190.166 17.389H188.432C188.315 17.389 188.238 17.3112 188.238 17.1954V8.69179C188.238 8.576 188.16 8.50001 188.045 8.50001H187.605C187.476 8.50001 187.41 8.57781 187.41 8.69179V17.9409H187.408ZM182.373 15.8475C182.282 15.8475 182.257 15.795 182.269 15.7064L183.084 10.9534C183.097 10.8756 183.201 10.8756 183.214 10.9534L184.016 15.7064C184.029 15.7969 184.004 15.8475 183.912 15.8475H182.373ZM181.286 18.1326H181.713C181.83 18.1326 181.881 18.0946 181.906 17.9409L182.102 16.7974C182.114 16.7196 182.14 16.6056 182.295 16.6056H184.004C184.159 16.6056 184.184 16.7214 184.197 16.7974L184.39 17.9409C184.416 18.0946 184.469 18.1326 184.584 18.1326H185.012C185.142 18.1326 185.205 18.0693 185.18 17.9137L183.55 8.72979C183.511 8.538 183.471 8.4982 183.291 8.4982H182.993C182.826 8.4982 182.787 8.5362 182.749 8.72979L181.117 17.9137C181.091 18.0693 181.155 18.1326 181.286 18.1326ZM178.243 18.1326H178.682C178.812 18.1326 178.875 18.0548 178.875 17.9409V8.69179C178.875 8.576 178.797 8.50001 178.682 8.50001H178.243C178.113 8.50001 178.049 8.57781 178.049 8.69179V17.9409C178.049 18.0566 178.126 18.1326 178.243 18.1326ZM173.672 18.1978C174.838 18.1978 175.64 17.427 175.64 16.2582V15.2432C175.64 15.1274 175.576 15.0514 175.447 15.0514H175.007C174.891 15.0514 174.814 15.1292 174.814 15.2432V16.014C174.814 16.9638 174.347 17.4144 173.674 17.4144C172.989 17.4144 172.534 16.9638 172.534 16.014V10.6187C172.534 9.667 172.989 9.2183 173.674 9.2183C174.347 9.2183 174.814 9.667 174.814 10.6187V11.3894C174.814 11.5052 174.892 11.5812 175.007 11.5812H175.447C175.576 11.5812 175.64 11.5034 175.64 11.3894V10.3744C175.64 9.20563 174.838 8.43488 173.672 8.43488C172.507 8.43488 171.705 9.19297 171.705 10.3744V16.2582C171.703 17.4397 172.507 18.1978 173.672 18.1978ZM164.944 18.1326H165.358C165.475 18.1326 165.551 18.0548 165.551 17.9409V11.3243C165.551 11.2465 165.643 11.2212 165.681 11.299L168.362 17.9788C168.413 18.1073 168.504 18.1326 168.621 18.1326H168.918C169.035 18.1326 169.111 18.0693 169.111 17.9517V8.69179C169.111 8.576 169.033 8.50001 168.918 8.50001H168.504C168.387 8.50001 168.311 8.57781 168.311 8.69179V15.3192C168.311 15.4097 168.207 15.4097 168.181 15.3445L165.5 8.66465C165.449 8.52353 165.371 8.4982 165.229 8.4982H164.944C164.827 8.4982 164.751 8.576 164.751 8.68998V17.939C164.751 18.0566 164.829 18.1326 164.944 18.1326ZM159.417 18.1326H161.979C162.096 18.1326 162.174 18.0548 162.174 17.9409V17.5808C162.174 17.465 162.096 17.389 161.979 17.389H160.245C160.128 17.389 160.051 17.3112 160.051 17.1954V13.8302C160.051 13.7144 160.13 13.6384 160.245 13.6384H161.979C162.096 13.6384 162.174 13.5606 162.174 13.4466V13.0865C162.174 12.9708 162.096 12.893 161.979 12.893H160.245C160.128 12.893 160.051 12.8152 160.051 12.7012V9.43722C160.051 9.32142 160.13 9.24543 160.245 9.24543H161.979C162.096 9.24543 162.174 9.16764 162.174 9.05365V8.6936C162.174 8.57781 162.096 8.50182 161.979 8.50182H159.417C159.287 8.50182 159.221 8.57962 159.221 8.6936V17.9427C159.221 18.0566 159.3 18.1326 159.417 18.1326ZM154.793 18.1978C155.959 18.1978 156.761 17.427 156.761 16.2582V15.6413C156.761 14.4851 155.766 13.7144 155.065 13.0214C154.327 12.2887 153.654 11.7115 153.654 10.9914V10.6187C153.654 9.667 154.119 9.2183 154.793 9.2183C155.466 9.2183 155.933 9.667 155.933 10.6187V10.9914C155.933 11.1072 156.012 11.1832 156.127 11.1832H156.566C156.696 11.1832 156.759 11.1054 156.759 10.9914V10.3744C156.759 9.20563 155.957 8.43488 154.792 8.43488C153.626 8.43488 152.824 9.20563 152.824 10.3744V10.9914C152.824 12.1475 153.769 12.8803 154.507 13.6112C155.193 14.306 155.931 14.9212 155.931 15.6413V16.014C155.931 16.9638 155.465 17.4144 154.792 17.4144C154.091 17.4144 153.652 16.9638 153.652 16.014V15.6413C153.652 15.5255 153.573 15.4495 153.459 15.4495H153.017C152.888 15.4495 152.824 15.5273 152.824 15.6413V16.2582C152.826 17.427 153.628 18.1978 154.793 18.1978ZM148.657 18.1978C149.822 18.1978 150.625 17.427 150.625 16.2582V15.6413C150.625 14.4851 149.627 13.7144 148.927 13.0214C148.19 12.2887 147.515 11.7115 147.515 10.9914V10.6187C147.515 9.667 147.982 9.2183 148.655 9.2183C149.328 9.2183 149.795 9.667 149.795 10.6187V10.9914C149.795 11.1072 149.873 11.1832 149.988 11.1832H150.428C150.557 11.1832 150.623 11.1054 150.623 10.9914V10.3744C150.623 9.20563 149.818 8.43488 148.655 8.43488C147.49 8.43488 146.687 9.20563 146.687 10.3744V10.9914C146.687 12.1475 147.632 12.8803 148.37 13.6112C149.056 14.306 149.795 14.9212 149.795 15.6413V16.014C149.795 16.9638 149.328 17.4144 148.655 17.4144C147.955 17.4144 147.515 16.9638 147.515 16.014V15.6413C147.515 15.5255 147.437 15.4495 147.322 15.4495H146.882C146.753 15.4495 146.689 15.5273 146.689 15.6413V16.2582C146.689 17.427 147.491 18.1978 148.657 18.1978ZM141.612 18.1326H144.176C144.293 18.1326 144.369 18.0548 144.369 17.9409V17.5808C144.369 17.465 144.291 17.389 144.176 17.389H142.442C142.325 17.389 142.246 17.3112 142.246 17.1954V13.8302C142.246 13.7144 142.325 13.6384 142.442 13.6384H144.176C144.293 13.6384 144.369 13.5606 144.369 13.4466V13.0865C144.369 12.9708 144.291 12.893 144.176 12.893H142.442C142.325 12.893 142.246 12.8152 142.246 12.7012V9.43722C142.246 9.32142 142.325 9.24543 142.442 9.24543H144.176C144.293 9.24543 144.369 9.16764 144.369 9.05365V8.6936C144.369 8.57781 144.291 8.50182 144.176 8.50182H141.612C141.482 8.50182 141.418 8.57962 141.418 8.6936V17.9427C141.418 18.0566 141.497 18.1326 141.612 18.1326Z" fill="white"/>
</svg>
